<svg width="8" height="6" viewBox="0 0 8 6" fill="none" xmlns="http://www.w3.org/2000/svg">
<path d="M2.91759 5.77791C2.88259 5.74391 2.73359 5.61591 2.61159 5.49691C1.62222 4.47749 0.806426 3.30295 0.196594 2.01991C0.0988293 1.79417 0.0315714 1.55641 -0.00340557 1.31291C-0.00364733 1.12597 0.0412955 0.941741 0.127594 0.775912C0.251058 0.562007 0.441538 0.394722 0.669594 0.299912C0.879239 0.23678 1.09224 0.185367 1.30759 0.145912C2.06549 0.0364048 2.83092 -0.012417 3.59659 -8.84725e-05C4.33495 -0.00649507 5.07292 0.0362662 5.80559 0.127912C6.07722 0.172875 6.34476 0.23976 6.60559 0.327912C6.78225 0.416474 6.93096 0.552186 7.03527 0.720029C7.13957 0.887872 7.19541 1.0813 7.19659 1.27891V1.31291C7.15301 1.58754 7.07051 1.85456 6.95159 2.10591C6.34525 3.35926 5.5417 4.50719 4.57159 5.50591C4.46729 5.60931 4.35639 5.70585 4.23959 5.79491C4.05299 5.93082 3.82743 6.00273 3.59659 5.99991C3.35079 6.00252 3.11089 5.92454 2.91359 5.77791" fill="#545F7E"/>
</svg>
