<svg width="148" height="55" viewBox="0 0 148 55" fill="none" xmlns="http://www.w3.org/2000/svg">
<path d="M26.6916 39.5148L23.7688 36.5808V31.8443H28.3956C28.4481 31.802 28.5045 31.7648 28.5641 31.7332L29.2865 31.0855C29.2865 31.0855 29.3506 30.9553 29.4129 30.7977H26.7209L23.7615 27.8556V19.2023L27.1686 15.832H36.1355L39.4025 19.1567V23.9607H34.817C34.9431 24.087 35.0392 24.2397 35.0983 24.4077C35.1574 24.5757 35.178 24.7547 35.1585 24.9317C35.0067 24.9441 34.8538 24.9311 34.7062 24.8934C34.4721 24.8438 34.231 24.8351 33.9938 24.8679C33.8627 24.7935 33.7153 24.7522 33.5644 24.7477C33.5644 24.7477 33.1588 24.2585 32.7623 24.4525C32.726 24.62 32.711 24.7914 32.7174 24.9626H36.4295L39.4007 27.8191V36.6637L36.5338 39.5148H26.6916ZM24.1589 36.4178L26.8949 39.1704H36.326L39.0528 36.4579V28.0223L36.2628 25.3589H32.8264C33.0446 25.683 33.3471 25.9421 33.7017 26.1085C33.8484 26.1576 33.9828 26.2372 34.0961 26.342C34.2095 26.4467 34.2991 26.5742 34.3592 26.7161C34.3702 26.8554 33.9682 26.8072 33.9059 26.798C33.8437 26.7889 32.7348 26.6805 32.7348 26.6805C32.7425 26.7691 32.7635 26.856 32.7971 26.9383C33.0077 27.4848 33.438 27.6388 34.1477 28.0778C34.1477 28.0778 35.6328 28.1835 35.0175 28.6526C35.0175 28.6526 34.6806 28.914 34.6439 29.0579C34.5583 29.1195 34.4539 29.1497 34.3484 29.1433C34.2429 29.137 34.1429 29.0946 34.0653 29.0233C34.0653 29.0233 32.9894 28.3292 32.9161 28.7974C32.9161 28.7974 32.5856 29.2365 33.4912 29.9223C33.8029 30.1165 34.1666 30.2118 34.5341 30.1956C34.5341 30.1956 35.305 30.3341 34.6522 30.8332C34.6522 30.8332 34.2859 31.1575 34.8353 31.3032C34.8353 31.3032 35.7409 31.4481 35.9579 32.9947C35.9579 32.9947 36.1017 33.4656 35.3426 33.0312C35 32.7534 34.6111 32.5375 34.1934 32.3935C34.1934 33.1669 34.1934 33.9238 34.1934 34.2098H32.3768V34.4102L32.4125 35.4368C32.3883 35.6016 32.3979 35.7695 32.4409 35.9305C32.5325 36.3768 32.7083 36.9716 33.0407 37.1392C33.9664 37.6074 33.6038 37.7349 34.3226 37.9717C35.0551 38.2149 35.0166 38.3898 35.0413 38.582H28.7527C28.8009 38.4863 28.8677 38.401 28.9493 38.3311C29.0309 38.2612 29.1256 38.2081 29.2279 38.1749C29.4323 38.1636 29.6277 38.0876 29.7855 37.9581C30.0694 37.7759 30.019 37.1638 30.605 36.9179C30.7789 36.8599 30.9497 36.7933 31.1169 36.7184C31.1956 36.6674 31.3229 36.5909 31.3916 36.037C31.4172 35.8549 31.4374 35.1972 31.4456 34.8921L31.4767 34.2107H29.7581V32.7533H29.7214C29.6616 32.7566 29.6036 32.775 29.5529 32.8069C29.5022 32.8388 29.4607 32.8831 29.4321 32.9355C29.4321 32.9355 29.0457 33.3217 28.7573 33.2516C28.6039 33.259 28.4537 33.2981 28.3162 33.3663C28.1788 33.4345 28.0571 33.5304 27.9588 33.6478L27.8792 33.7926C27.8792 33.7926 27.2721 34.1515 27.3078 33.7198C27.476 33.2036 27.7154 32.7131 28.0193 32.2624H24.1589V36.4178ZM30.638 32.0274C30.521 32.2577 30.3574 32.4615 30.1573 32.6258V33.81H31.463L31.4749 33.3609V33.2297C31.4694 32.9242 31.4223 32.6209 31.3348 32.328C31.3006 32.2323 31.239 32.1486 31.1577 32.0871C31.0764 32.0256 30.9789 31.989 30.877 31.9818C30.7948 31.9826 30.7136 31.9997 30.638 32.0319V32.0274ZM32.3887 32.2596L32.3686 33.5622V33.8054H33.7897V32.3717L33.1917 32.348C32.9901 32.3373 32.7973 32.2619 32.6424 32.133C32.603 32.1023 32.5557 32.0834 32.5059 32.0784C32.4537 32.0784 32.3988 32.1166 32.3878 32.2606L32.3887 32.2596ZM28.5503 30.4179H29.5182C29.5264 30.3168 29.5081 30.2457 29.4376 30.2357L28.5503 30.4179ZM24.1525 19.3726V27.7044L26.8802 30.4179H28.5055C28.5137 30.3468 28.608 29.864 29.4431 29.7301C29.6587 29.6415 29.8531 29.5087 30.0135 29.3403C30.0135 29.3403 30.5565 28.9759 30.3798 28.6927C30.3798 28.6927 30.1967 28.5852 29.9467 28.7983C29.9467 28.7983 27.9735 29.6081 27.9552 29.3448C27.9451 29.1927 28.5348 29.2009 28.6071 29.0206C28.6071 29.0206 28.6071 28.6253 28.3535 28.8047C28.3535 28.8047 28.1356 28.6608 28.4249 28.5897C28.4249 28.5897 28.7509 28.4458 28.8232 28.301C28.8232 28.301 29.042 28.0851 29.2224 28.1562C29.2224 28.1562 29.6207 28.1562 29.6564 27.9403H30.2351C30.2351 27.9403 30.4512 27.3027 30.3047 27.0841L30.0154 27.0085C29.988 26.9781 29.9544 26.9538 29.917 26.9371C29.8795 26.9205 29.8389 26.9119 29.7979 26.9119C29.7569 26.9119 29.7163 26.9205 29.6788 26.9371C29.6414 26.9538 29.6078 26.9781 29.5804 27.0085L28.7106 27.0795C28.7106 27.0795 28.6401 26.6833 29.7984 26.3963C29.9195 26.355 30.0304 26.2886 30.124 26.2017C30.2175 26.1147 30.2916 26.0091 30.3413 25.8917C30.4999 25.7305 30.6414 25.5535 30.7634 25.3634H29.5392V24.9763C29.0991 25.0877 28.6509 25.165 28.1987 25.2077C28.1987 25.2077 27.8004 24.7367 28.6327 24.3788C28.6327 24.3788 29.3213 24.0891 29.5017 23.7302C29.5017 23.7302 29.5163 23.722 29.5392 23.712V22.8922C29.2645 23.0261 28.9624 23.1418 28.8177 23.0744C28.8177 23.0744 28.6739 22.9314 28.9624 22.6426C29.0891 22.368 29.2885 22.1328 29.5392 21.9622V21.3519H30.8889C31.037 21.2517 31.1507 21.1087 31.2147 20.9423C31.2787 20.7759 31.2899 20.594 31.2469 20.421C31.2469 20.421 30.9786 20.2643 30.2928 20.6724C30.2928 20.6724 29.5228 20.421 30.3963 20.0348L30.6563 19.6823C30.6563 19.6823 30.3908 19.8699 30.3505 19.6732C30.3294 19.5739 30.323 19.4345 30.5977 19.2997C30.9521 19.1285 30.8724 18.9673 31.2872 18.9509C31.3036 18.9255 31.314 18.8967 31.3176 18.8667C31.3213 18.8368 31.3181 18.8064 31.3083 18.7778C30.9054 18.7313 30.7113 18.2249 31.419 17.9188L31.4896 17.6219L31.1856 17.6538C31.1856 17.6538 30.9301 17.1983 31.42 17.2056C31.5671 17.0493 31.6728 16.859 31.7276 16.6518C31.7276 16.6518 31.5985 16.4569 31.8192 16.4569C31.8192 16.4569 31.9657 16.3922 31.8943 16.7156C31.9476 16.8302 31.9787 16.9538 31.9858 17.0799C31.9858 17.0799 31.8943 17.2858 32.4272 17.4069C32.483 17.4206 32.4839 17.7968 32.1232 17.7604C32.1232 17.7604 32.0041 17.9963 32.3457 18.265C32.3457 18.265 32.9115 18.7869 32.3988 18.8115C32.3988 18.8115 33.1862 19.3125 32.961 19.5402C32.9061 19.5939 32.7898 19.5766 32.6863 19.5593C32.6048 19.5457 32.5352 19.5302 32.5233 19.5593C32.4821 19.6413 32.4986 19.6814 32.6066 19.726C32.6982 19.7643 33.2641 19.9082 33.4188 20.3554C33.4188 20.3554 33.3364 20.5822 32.9344 20.5522C32.9344 20.5522 32.1735 20.2725 32.2825 20.9575C32.3573 21.1259 32.4861 21.2649 32.6488 21.3528H33.9252V21.9349C34.383 22.1581 34.8317 22.4386 34.6577 22.6126C34.4127 22.6356 34.1655 22.6205 33.9252 22.5679V23.2511C33.9991 23.2573 34.0704 23.281 34.1332 23.3203C34.196 23.3596 34.2484 23.4134 34.2859 23.477C34.2859 23.477 34.3079 23.5189 34.3418 23.5736H39.0528V19.3744L35.9661 16.2319H27.3234L24.1525 19.3726ZM30.1179 24.8497C30.1179 24.8497 30.0502 24.867 29.9348 24.8916V24.9663H30.812L30.8065 24.9599C30.8065 24.9599 30.7854 24.7586 30.5089 24.7586C30.3741 24.7652 30.2416 24.796 30.1179 24.8497ZM30.0502 22.6016C30.0502 22.6016 30.008 22.6308 29.9385 22.6709V23.5253C30.2666 23.3604 30.6067 23.2201 30.9557 23.1054C30.9557 23.1054 31.4255 22.8549 30.7369 22.6016C30.6973 22.5504 30.6471 22.5082 30.5898 22.4777C30.5325 22.4472 30.4694 22.4292 30.4045 22.4249C30.3366 22.4293 30.2702 22.4472 30.2093 22.4775C30.1484 22.5079 30.0943 22.5501 30.0502 22.6016ZM33.1286 22.9259L33.3053 23.1172C33.3828 23.1184 33.4594 23.1335 33.5314 23.1618V22.5169C33.1789 22.4687 32.8484 22.4213 32.7293 22.4213L32.6927 22.6381C32.7336 22.629 32.7753 22.6244 32.8172 22.6244C32.8588 22.6187 32.9011 22.6225 32.9409 22.6356C32.9808 22.6487 33.017 22.6707 33.047 22.6999C33.077 22.7291 33.0998 22.7647 33.1138 22.804C33.1278 22.8434 33.1325 22.8854 33.1276 22.9268L33.1286 22.9259ZM33.5314 21.7573V21.7345H33.4802C33.4966 21.7434 33.5138 21.751 33.5314 21.7573ZM29.9394 21.7573C29.9586 21.7518 29.9769 21.7436 29.998 21.7372H29.9385L29.9394 21.7573ZM35.3041 38.8161L35.2684 38.5146C35.2345 38.1922 35.0853 37.9854 34.3986 37.7559C34.2165 37.7175 34.0542 37.6157 33.9407 37.4689C33.717 37.2387 33.4472 37.0578 33.1487 36.9379C32.8714 36.6542 32.7023 36.283 32.6707 35.8886C32.633 35.7478 32.6252 35.6007 32.6478 35.4568V35.4441L32.6195 34.6316H34.5789V32.8098C34.7918 32.9313 34.9953 33.0683 35.1878 33.2197L35.2025 33.2325L35.2171 33.2407C35.4918 33.3982 35.837 33.554 36.0614 33.3755C36.1185 33.3252 36.16 33.2598 36.181 33.1868C36.2019 33.1138 36.2014 33.0364 36.1795 32.9638C35.9533 31.377 35.034 31.1156 34.882 31.0837C34.8457 31.0736 34.8102 31.0608 34.7758 31.0455C34.7837 31.0335 34.7926 31.0223 34.8024 31.0117C35.0679 30.8032 35.1778 30.59 35.1283 30.3851C35.0505 30.0717 34.6476 29.9843 34.567 29.9697L34.5295 29.9633L34.4929 29.9688C34.184 29.979 33.8789 29.8985 33.6157 29.7374C33.1945 29.415 33.0819 29.1672 33.08 29.026C33.0781 28.9946 33.0844 28.9632 33.0983 28.935V28.9486L33.1038 28.9386L33.1258 28.9058L33.1341 28.8748C33.4196 28.9372 33.6896 29.0562 33.9279 29.2246C34.0463 29.3229 34.1943 29.379 34.3484 29.3841C34.5024 29.3893 34.6538 29.3431 34.7785 29.2529L34.8381 29.2073C34.8381 29.2073 34.8555 29.1508 34.861 29.1344C34.9443 29.0242 35.0429 28.9264 35.154 28.8439C35.2233 28.8022 35.2813 28.7443 35.3231 28.6752C35.3649 28.6062 35.3892 28.5281 35.3939 28.4476C35.3936 28.4137 35.3883 28.3799 35.3783 28.3474C35.2803 28.0177 34.7044 27.9002 34.2163 27.8583L33.8748 27.6543C33.5366 27.5088 33.251 27.2641 33.0562 26.9529C33.3556 26.9793 33.6322 27.0066 33.7887 27.0239C33.9921 27.0772 34.2068 27.0683 34.405 26.9984C34.4593 26.9761 34.5057 26.9381 34.5383 26.8895C34.5709 26.8408 34.5882 26.7836 34.5881 26.7252V26.7088C34.5285 26.522 34.4254 26.3518 34.2871 26.2122C34.1488 26.0726 33.9793 25.9674 33.7924 25.9054C33.7173 25.8713 33.6451 25.8314 33.5763 25.7861H36.0925L38.6563 28.2163V36.3267L36.1621 38.8143L35.3041 38.8161ZM27.0551 38.8161L24.5536 36.2866V32.6695H27.49C27.3286 32.9833 27.193 33.3096 27.0844 33.6451L27.0771 33.6697V33.7544C27.0745 33.8223 27.0894 33.8896 27.1205 33.9501C27.1516 34.0106 27.1978 34.062 27.2547 34.0996C27.4992 34.2517 27.8599 34.0696 28.0037 33.9839L28.0586 33.9511L28.1667 33.7589C28.2422 33.6732 28.3348 33.604 28.4387 33.5558C28.5426 33.5077 28.6555 33.4816 28.7701 33.4793C28.9875 33.4884 29.2009 33.4188 29.3708 33.2835V34.6316H31.202L31.1938 34.8903L31.2167 34.8611V34.8839L31.2103 35.2874C31.2039 35.6208 31.181 35.8949 31.1663 36.0106C31.1059 36.456 31.0244 36.5061 30.9933 36.5253C30.9314 36.5556 30.8667 36.5797 30.8001 36.5972C30.7022 36.626 30.607 36.6629 30.5153 36.7074C30.3559 36.7781 30.2143 36.883 30.1006 37.0147C29.9869 37.1464 29.904 37.3015 29.8579 37.4689C29.8213 37.5835 29.7542 37.6861 29.6638 37.7659C29.4431 37.9052 29.4431 37.9052 29.3589 37.9189L29.1757 37.9526C29.0391 37.9928 28.9123 38.0608 28.8034 38.1522C28.6945 38.2436 28.6059 38.3564 28.543 38.4836L28.3837 38.8143L27.0551 38.8161ZM93.0758 30.7704C93.0758 28.2573 94.4327 25.327 98.2665 25.327C101.38 25.327 103.245 27.258 103.245 30.4898C103.245 33.0038 101.884 35.9332 98.0514 35.9332C94.9418 35.9314 93.0758 34.0021 93.0758 30.7704ZM96.7383 26.962C95.9143 27.6442 95.504 28.8921 95.5013 30.6638C95.5013 31.346 95.6277 34.7627 98.142 34.7627C98.6643 34.7873 99.178 34.6237 99.5887 34.3018C100.407 33.6196 100.821 32.3726 100.821 30.6009C100.821 29.916 100.694 26.502 98.1823 26.502C97.6612 26.4735 97.1477 26.6355 96.7383 26.9574V26.962ZM112.542 30.979C112.532 30.0392 112.722 29.108 113.099 28.2463C113.53 27.337 114.224 26.5759 115.091 26.0598C115.959 25.5437 116.961 25.2959 117.97 25.3479C118.64 25.3464 119.308 25.4111 119.965 25.541V23.385C120.049 22.6414 119.981 21.8885 119.766 21.1716C119.649 21.0539 119.509 20.962 119.355 20.9019C119.2 20.8418 119.034 20.8148 118.869 20.8227C118.841 20.8239 118.814 20.8221 118.787 20.8172L118.593 20.7981L118.638 20.3427H118.854C119.587 20.2848 120.317 20.1891 121.04 20.0558C121.382 20.0063 121.719 19.9295 122.048 19.8262L122.15 19.788L122.325 19.8927L122.316 19.9911C122.247 20.83 122.239 22.618 122.239 23.9607V32.2369C122.156 32.9924 122.223 33.7569 122.436 34.4867C122.551 34.6082 122.69 34.7041 122.845 34.7683C122.999 34.8325 123.166 34.8635 123.333 34.8593C123.361 34.8603 123.39 34.8631 123.417 34.8675L123.611 34.8757V35.4222H123.396C122.732 35.4492 122.07 35.5185 121.414 35.6299C121.06 35.6713 120.711 35.7498 120.373 35.864L120.281 35.9059L120.007 35.8148V34.9604C119.182 35.5687 118.184 35.901 117.157 35.9095C114.354 35.9095 112.542 33.9766 112.542 30.979ZM114.966 30.7057C114.966 31.8352 115.288 34.4621 118.25 34.4621H118.342C118.909 34.4722 119.468 34.3296 119.961 34.0495V27.2453C119.399 26.7598 118.666 26.5149 117.924 26.5639C115.937 26.5639 114.966 27.9193 114.966 30.7039V30.7057ZM56.8501 34.0759C56.7128 33.3951 56.6587 32.7002 56.689 32.0064C56.689 30.3832 56.7027 29.0816 56.7201 27.5723V26.8645H55.3787V26.4665L55.5115 26.4127C55.9247 26.2585 56.3108 26.0399 56.6551 25.7651C57.3336 25.1872 57.9005 24.4912 58.328 23.7111L58.556 23.3212H59.0019V25.6066H62.4813V26.8645H59.0019V32.1968C59.0019 33.7926 59.2995 34.7008 60.8176 34.7008C61.2493 34.7018 61.676 34.6085 62.0675 34.4275L62.2781 34.32L62.4557 34.7336L62.3641 34.832C62.0251 35.196 61.6086 35.4802 61.1451 35.6638C60.6816 35.8474 60.1828 35.9257 59.685 35.8931C58.1128 35.8931 57.2356 35.3311 56.8465 34.0768L56.8501 34.0759ZM63.4794 33.1195C63.4525 32.5106 63.6317 31.9104 63.9885 31.4149C64.3453 30.9194 64.8589 30.5574 65.4471 30.3869C67.2665 29.721 67.6557 29.6445 68.9064 29.2556V28.9331C68.9402 28.5536 68.8991 28.1712 68.7856 27.8073C68.643 27.4368 68.3831 27.1225 68.0451 26.9118C67.7072 26.7012 67.3095 26.6056 66.9122 26.6396C66.5224 26.6307 66.137 26.7237 65.7947 26.9093C65.4523 27.0948 65.1648 27.3665 64.9609 27.6971L64.8501 27.9048L64.3383 27.5996L64.3895 27.4429C64.6574 26.7664 65.1366 26.1935 65.7567 25.8085C66.3767 25.4236 67.1047 25.2471 67.8333 25.3051C68.3907 25.2412 68.9553 25.3255 69.4692 25.5495C69.9832 25.7736 70.4282 26.1293 70.7588 26.5803C71.1442 27.4026 71.3023 28.3122 71.2166 29.2155C71.2166 30.089 71.1955 31.0646 71.1772 31.8488C71.1644 32.3881 71.1543 32.8563 71.1543 33.1414C71.1543 33.8591 71.2697 34.4166 71.8676 34.4166C71.9879 34.4256 72.1073 34.3892 72.2018 34.3146L72.3666 34.1734L72.7018 34.555L72.591 34.699C72.3733 35.0365 72.0759 35.3159 71.7248 35.5129C71.3737 35.71 70.9795 35.8186 70.5766 35.8294C70.237 35.8631 69.8961 35.7793 69.6114 35.5922C69.3266 35.405 69.1155 35.1259 69.0136 34.8019C68.6831 35.1426 68.2854 35.4116 67.8455 35.5922C67.4056 35.7728 66.9329 35.861 66.4571 35.8512C63.6918 35.8512 63.4785 33.7562 63.4785 33.1186L63.4794 33.1195ZM66.6658 31.3515C66.3805 31.5064 66.1452 31.7386 65.9873 32.0213C65.8294 32.304 65.7555 32.6254 65.774 32.9483C65.754 33.1504 65.7801 33.3544 65.8504 33.5451C65.9206 33.7358 66.0331 33.9083 66.1797 34.0498C66.3262 34.1912 66.5028 34.298 66.6966 34.3621C66.8903 34.4263 67.0961 34.4461 67.2986 34.4202C67.8711 34.4339 68.4337 34.27 68.9083 33.9511V30.5099C68.1342 30.7146 67.3829 30.9965 66.6658 31.3515ZM46.1829 35.3448L46.0327 35.2947V34.5578C46.0327 33.5731 46.0117 33.1915 45.9897 32.8736L45.9604 32.3653H46.5611L46.572 32.5785C46.5864 33.0268 46.7493 33.4578 47.0354 33.8045C47.6961 34.3523 48.5406 34.6315 49.3995 34.586C51.3471 34.586 52.2536 33.8573 52.2536 32.2788C52.2536 30.9334 51.4158 30.3714 50.2584 29.5953L50.0753 29.4687L48.8529 28.6581C47.1562 27.5413 46.2864 26.6441 46.2864 24.8497C46.2864 23.9752 46.6178 21.1151 50.8975 21.1151C51.9581 21.1142 53.0172 21.1937 54.0657 21.3528L54.2488 21.3847L54.2415 21.5669C54.2415 21.5724 54.2277 22.1271 54.2277 22.7273C54.2277 23.2028 54.2195 23.6173 54.2369 24.0427L54.2534 24.3605H53.7342L53.7214 24.1611C53.7173 23.7043 53.5408 23.2657 53.2269 22.9323C52.5575 22.4729 51.7481 22.2597 50.9378 22.3293C48.6707 22.3293 48.4061 23.4907 48.4061 24.3605C48.4061 25.5565 49.0223 25.9637 50.371 26.8481L51.9176 27.8674C53.2361 28.7419 54.4768 29.5671 54.4768 31.7404C54.4768 35.4222 51.0276 35.8193 49.5451 35.8193C48.4046 35.8449 47.2677 35.683 46.1801 35.3402L46.1829 35.3448ZM86.3137 35.2719L86.5124 35.2546C86.857 35.2362 87.1813 35.0873 87.4189 34.8383C87.7366 34.4867 87.7513 33.6305 87.7513 31.8999V26.8645H86.4209V26.2962L86.5536 26.2388C86.9794 26.0834 87.3823 25.8717 87.7513 25.6094C87.7336 24.7093 87.7844 23.8092 87.9033 22.9168C88.3071 20.8218 89.6851 19.7561 92.0017 19.7561C92.8944 19.74 93.7684 20.0116 94.4932 20.5303L94.5719 20.5932L94.6021 20.8081L93.5894 22.2081H93.3504L93.2964 22.0815C93.1782 21.7238 92.9466 21.4138 92.6365 21.1979C92.3264 20.982 91.9543 20.8718 91.5759 20.8837C91.1992 20.873 90.832 21.003 90.5468 21.2481C90.1045 21.6853 90.0303 22.3411 90.0303 23.6391V25.603H92.3048V26.86H90.0239V32.501C89.9362 33.2601 90.0124 34.029 90.2473 34.7564C90.5303 35.1836 91.4001 35.2118 91.6556 35.2118H91.8717V35.7583L91.6455 35.7456C90.5211 35.6873 89.686 35.6599 89.0817 35.6599C88.3254 35.6599 87.4638 35.6599 86.55 35.7456L86.3146 35.7683L86.3137 35.2719ZM104.234 35.2473L104.435 35.2318C104.78 35.2121 105.104 35.0622 105.341 34.8128C105.658 34.4612 105.67 33.6287 105.67 31.898V28.9942C105.67 27.7454 105.657 27.2088 105.474 26.9383C105.355 26.8195 105.212 26.727 105.054 26.6671C104.896 26.6071 104.727 26.581 104.559 26.5904C104.53 26.5904 104.5 26.5858 104.48 26.584L104.28 26.563V25.9427L104.499 25.9482C104.555 25.953 104.61 25.9548 104.666 25.9537C105.286 25.9431 105.903 25.8785 106.512 25.7606C106.886 25.7054 107.252 25.6079 107.604 25.47L107.723 25.4162L107.906 25.5073V26.3982C108.54 25.7898 109.387 25.4507 110.267 25.4527C110.888 25.4215 111.498 25.623 111.977 26.0174L112.047 26.083V26.3982L111.186 27.9631H110.772L110.708 27.8656C110.532 27.5954 110.286 27.3769 109.996 27.2328C109.707 27.0887 109.383 27.0241 109.06 27.0458C108.665 27.0364 108.277 27.1497 107.949 27.3701V32.501C107.863 33.2529 107.938 34.0145 108.169 34.7354C108.459 35.1599 109.32 35.1908 109.579 35.1908H109.792V35.7538L109.566 35.741C108.442 35.6827 107.603 35.6563 107.002 35.6563C106.241 35.6563 105.383 35.6563 104.471 35.741L104.234 35.7638V35.2473ZM73.5835 35.2783L73.7786 35.2646C74.1223 35.2412 74.4451 35.0916 74.6841 34.8447C75.0009 34.4931 75.0183 33.6278 75.0183 31.8971V28.9942C75.1084 28.3025 75.0395 27.5996 74.8169 26.9383C74.6975 26.8195 74.5542 26.727 74.3964 26.6671C74.2387 26.6071 74.0699 26.581 73.9013 26.5904C73.872 26.5904 73.8427 26.5849 73.817 26.584L73.6247 26.563V25.9837L73.8555 26.001C73.9069 26.0054 73.9586 26.0069 74.0102 26.0056C74.6297 25.9945 75.247 25.9299 75.8552 25.8125C76.2321 25.7538 76.5958 25.6305 76.9302 25.4481L77.0474 25.3962L77.2489 25.5137V26.318C78.1058 25.688 79.1426 25.3465 80.2082 25.3434C82.0505 25.3434 83.2518 26.1978 83.5961 27.7508C83.6932 28.3513 83.7376 28.959 83.7289 29.5671V32.5311C83.7289 34.208 83.7939 34.6789 84.1116 34.9722C84.3403 35.1433 84.6151 35.2426 84.9009 35.2573L85.1023 35.2719V35.7465L84.596 35.7201C83.8635 35.6827 83.2298 35.6481 82.5687 35.6481C81.7949 35.6379 81.021 35.6683 80.2503 35.7392L80.015 35.7601V35.2892L80.1981 35.2674C80.5098 35.2421 80.8056 35.1204 81.0442 34.9194C81.3482 34.3775 81.4782 33.7561 81.4169 33.1386C81.4169 33.0275 81.4251 32.9118 81.4361 32.788C81.4544 32.4081 81.4544 31.6102 81.4544 31.0263C81.4679 30.2512 81.4401 29.4758 81.3711 28.7036C81.3749 28.4296 81.3195 28.1581 81.2087 27.9073C81.0978 27.6564 80.9341 27.4323 80.7286 27.2498C80.5231 27.0674 80.2806 26.9311 80.0175 26.85C79.7544 26.7689 79.4769 26.745 79.2038 26.7798C78.5405 26.76 77.8829 26.9069 77.2919 27.207V32.5402C77.2919 34.2162 77.3606 34.6889 77.6755 34.9804C77.9041 35.1519 78.179 35.2515 78.4648 35.2664L78.6654 35.281V35.7556L78.116 35.7273C77.41 35.6918 76.7947 35.6581 76.1547 35.6581C75.3717 35.6471 74.5888 35.6757 73.8088 35.7437L73.5808 35.7656L73.5835 35.2783ZM27.0469 30.0562L24.5499 27.5705V19.5666L27.4836 16.6518H31.4896C31.49 16.6576 31.49 16.6634 31.4896 16.6691C31.4273 16.7903 31.3394 16.977 31.3321 16.977H31.2698C31.1953 16.9671 31.1196 16.9832 31.0556 17.0225C30.9917 17.0619 30.9434 17.1221 30.9191 17.1929C30.8898 17.2491 30.875 17.3117 30.8761 17.3751C30.8864 17.5192 30.9256 17.6598 30.9914 17.7886L31.0546 17.8797C30.9244 17.9474 30.8177 18.0525 30.7483 18.1813C30.6789 18.3101 30.65 18.4567 30.6655 18.602C30.6658 18.6509 30.6787 18.6989 30.703 18.7414C30.7281 18.7862 30.7644 18.8238 30.8083 18.8507C30.7946 18.8643 30.7799 18.8807 30.7653 18.8944C30.4494 19.1349 30.0941 19.3571 30.085 19.6495C30.0958 19.7323 30.1229 19.8121 30.1646 19.8845C29.9476 19.992 29.7178 20.1887 29.7196 20.431C29.7188 20.4392 29.7188 20.4475 29.7196 20.4556C29.7434 20.7562 30.1143 20.8774 30.226 20.9056L30.3175 20.9302L30.4018 20.8783C30.5904 20.7515 30.8049 20.6678 31.0299 20.6332C31.0303 20.6378 31.0303 20.6424 31.0299 20.6469C31.0314 20.7699 30.9929 20.89 30.92 20.9894H29.1473V21.9823C28.9897 22.1379 28.8603 22.3194 28.7646 22.5188C28.6372 22.6355 28.5601 22.7967 28.5494 22.9687C28.5478 23.068 28.5857 23.1639 28.6547 23.2356L28.6822 23.262L28.7152 23.2793C28.8536 23.3335 29.0065 23.3386 29.1483 23.2939V23.7985C28.965 23.948 28.7612 24.0707 28.543 24.1629C28.3908 24.21 28.252 24.2923 28.1381 24.4032C28.0241 24.514 27.9382 24.6502 27.8874 24.8005C27.8755 24.8491 27.8696 24.899 27.87 24.949C27.873 25.0988 27.9262 25.2434 28.0211 25.3598L28.0769 25.4254L28.1621 25.4399C28.4947 25.4298 28.8253 25.3846 29.1483 25.3051V25.787H30.1243L30.1115 25.8316C30.0737 25.9137 30.0194 25.9872 29.952 26.0476C29.8846 26.1081 29.8056 26.1542 29.7196 26.1832C28.4652 26.4984 28.4514 26.9875 28.4771 27.1305L28.5146 27.3382L29.6711 27.2471L29.7279 27.1979C29.7984 27.1378 29.8194 27.1606 29.835 27.1761L29.8817 27.2234L29.9531 27.248L30.1133 27.2872C30.1137 27.2933 30.1137 27.2993 30.1133 27.3054C30.1087 27.444 30.0878 27.5815 30.0511 27.7153H29.4513C29.4513 27.7153 29.4294 27.8519 29.4229 27.8875C29.3693 27.9192 29.3078 27.9356 29.2453 27.9348C28.9706 27.8219 28.6895 28.117 28.6566 28.1498L28.6337 28.1735L28.6016 28.2208C28.5224 28.2894 28.4316 28.3434 28.3333 28.3802C28.2627 28.3921 28.1971 28.4243 28.1447 28.4729C28.0923 28.5215 28.0554 28.5843 28.0385 28.6535C28.0369 28.6717 28.0369 28.69 28.0385 28.7081C28.0411 28.7615 28.0555 28.8137 28.0807 28.8609C28.1059 28.9081 28.1412 28.9493 28.1841 28.9814C27.9964 29.0288 27.7153 29.1016 27.7171 29.3549V29.3749C27.72 29.4191 27.7338 29.4619 27.757 29.4997C27.7803 29.5375 27.8125 29.569 27.8508 29.5917C27.9423 29.6463 28.1731 29.793 30.0318 29.0342L30.0511 29.027C29.9999 29.0781 29.9437 29.1242 29.8835 29.1645L29.8579 29.1836L29.8368 29.2073C29.7087 29.338 29.5478 29.4324 29.3708 29.4806C29.1614 29.4907 28.9574 29.5498 28.7754 29.6532C28.5934 29.7566 28.4385 29.9012 28.3233 30.0754L27.0469 30.0562ZM34.3574 23.2101C34.3446 23.1972 34.3312 23.1851 34.3171 23.1737V22.8549C34.654 22.8849 34.7401 22.8549 34.817 22.7811C34.8511 22.748 34.8782 22.7085 34.8967 22.6648C34.9153 22.6212 34.9249 22.5743 34.925 22.527C34.9234 22.5028 34.92 22.4787 34.915 22.455C34.8719 22.2628 34.6339 22.0642 34.3171 21.8811V20.9903H32.5654C32.5448 20.967 32.5267 20.9417 32.5114 20.9147C32.5114 20.8947 32.4894 20.8673 32.4894 20.8491C32.4884 20.834 32.4908 20.8189 32.4966 20.8048C32.5023 20.7908 32.5111 20.7782 32.5224 20.7681C32.5792 20.718 32.7202 20.7353 32.8584 20.779L32.885 20.7863H32.9134C33.0556 20.8153 33.2034 20.7967 33.3339 20.7334C33.4644 20.6702 33.5702 20.5658 33.6349 20.4365L33.6633 20.36L33.6367 20.2817C33.5423 20.0229 33.3496 19.8114 33.1002 19.6923C33.1497 19.6594 33.1894 19.6137 33.2149 19.5601C33.2404 19.5065 33.2507 19.4471 33.2448 19.3881C33.2082 19.2629 33.147 19.1463 33.0646 19.045C32.9822 18.9436 32.8804 18.8596 32.765 18.7978C33.0278 18.7068 32.7724 18.2513 32.4574 18.009C32.4574 18.009 32.3741 17.9443 32.3658 17.9362C32.4489 17.9011 32.5215 17.8453 32.5765 17.7741C32.6316 17.7029 32.6672 17.6188 32.6799 17.5299V17.4671C32.6827 17.4031 32.6634 17.3402 32.6252 17.2887C32.5871 17.2371 32.5324 17.2001 32.4702 17.1838C32.3536 17.1679 32.2424 17.1244 32.1461 17.0572C32.2038 17.0499 32.1461 16.7365 32.1085 16.6773C32.1084 16.6685 32.1102 16.6598 32.114 16.6518H35.8059L38.6536 19.5666V23.2101H34.3574Z" fill="#545F7E"/>
</svg>
