<svg width="147" height="55" viewBox="0 0 147 55" fill="none" xmlns="http://www.w3.org/2000/svg">
<path d="M34.1644 39.5148C29.9573 39.5088 25.924 37.8446 22.9477 34.8866C21.4689 33.4285 20.2972 31.6915 19.5014 29.7775C18.7055 27.8634 18.3014 25.8106 18.3127 23.7393V15.853H18.3411C19.718 15.8534 21.0706 16.2133 22.2637 16.8968C23.4699 16.1998 24.8399 15.8325 26.2349 15.832H26.2624C27.6514 15.8353 29.0151 16.2025 30.2161 16.8968C31.4089 16.214 32.7607 15.8541 34.1369 15.853H34.1653V39.5148H34.1644ZM24.6499 24.9289L26.2303 26.5093L27.8199 24.9408C28.3611 25.2856 28.9901 25.4695 29.6328 25.4709H29.6438C30.5455 25.472 31.4107 25.1167 32.049 24.4832C32.6874 23.8497 33.0466 22.9899 33.0477 22.0929C33.0488 21.1959 32.6917 20.3353 32.0549 19.7002C31.4181 19.0652 30.5537 18.7078 29.6521 18.7067H29.642C28.7952 18.7075 27.9791 19.0225 27.3535 19.5903C26.7279 20.158 26.3378 20.9376 26.2596 21.7764L26.244 21.7527L26.2294 21.7737C26.1556 20.9328 25.7684 20.1499 25.1439 19.5785C24.5194 19.0072 23.7028 18.6887 22.8543 18.6858H22.8433C22.3923 18.6779 21.9441 18.7593 21.525 18.9254C21.1059 19.0915 20.7242 19.3389 20.4021 19.6532C20.0801 19.9675 19.8242 20.3424 19.6493 20.7561C19.4744 21.1698 19.384 21.614 19.3834 22.0628C19.3828 22.5116 19.472 22.956 19.6457 23.3702C19.8195 23.7843 20.0744 24.1599 20.3956 24.4751C20.7168 24.7903 21.0978 25.0387 21.5165 25.2059C21.9352 25.3731 22.3831 25.4558 22.8342 25.449H22.847C23.485 25.4494 24.1099 25.2693 24.649 24.9298L24.6499 24.9289ZM110.713 33.5941C109.859 33.625 109.026 33.3223 108.393 32.7506C107.745 31.9253 107.442 30.8833 107.546 29.8413V23.5562C107.548 22.7671 107.864 22.0108 108.426 21.4532C108.987 20.8956 109.748 20.582 110.541 20.5813V21.6616L110.554 21.6552V23.5544H112.751V25.8034H110.554V29.3758C110.554 30.6192 110.893 31.1065 111.763 31.1065C112.068 31.1164 112.373 31.0892 112.672 31.0254L112.692 33.3336C112.05 33.523 111.382 33.6109 110.713 33.5941ZM94.4357 33.5941C93.9717 33.6188 93.5079 33.5419 93.0771 33.3688C92.6463 33.1956 92.2589 32.9305 91.9424 32.5921C91.2247 31.6545 90.8766 30.4882 90.9636 29.313V23.5544H94.031V28.8375C94.031 30.355 94.5538 31.1247 95.5876 31.1247C95.9219 31.125 96.2482 31.0232 96.5224 30.8329C96.7965 30.6426 97.0053 30.373 97.1204 30.0608C97.2082 29.8513 97.2497 29.6255 97.2421 29.3986V23.5544H100.31V30.2238C100.31 31.5428 100.353 32.6012 100.391 33.3764H97.7265L97.5855 31.9909H97.5242C97.1922 32.5004 96.7334 32.9157 96.1924 33.1966C95.6514 33.4775 95.0465 33.6144 94.4366 33.5941H94.4357ZM85.5933 33.5941C84.4906 33.6098 83.3995 33.3681 82.4078 32.8881L82.9572 30.7194C83.7707 31.1603 84.6758 31.4079 85.6016 31.4426C86.4714 31.4426 86.9128 31.1693 86.9128 30.6401C86.9128 30.1109 86.6051 29.875 85.4798 29.4961C83.6348 28.904 82.6312 27.8629 82.655 26.5649C82.655 24.662 84.3032 23.3331 86.671 23.3331C87.6243 23.3229 88.568 23.5216 89.4354 23.9151L88.9089 26.0029C88.2426 25.6733 87.5135 25.4886 86.7699 25.4609C86.0374 25.4609 85.6006 25.7533 85.6006 26.2433C85.6006 26.706 85.9431 26.952 87.1948 27.3883C89.016 27.9922 89.8373 28.9204 89.8584 30.3942C89.8703 30.8322 89.7797 31.267 89.5938 31.6642C89.4079 32.0615 89.1317 32.4103 88.7871 32.6832C87.8558 33.3349 86.7311 33.6558 85.5942 33.5941H85.5933ZM79.2964 33.5941C78.4419 33.6257 77.6089 33.3229 76.9762 32.7506C76.3269 31.9259 76.0229 30.8836 76.1274 29.8413V23.5562C76.1298 22.767 76.4464 22.0109 77.0079 21.4534C77.5694 20.8959 78.33 20.5823 79.1234 20.5813V21.6616L79.1353 21.6552V23.5544H81.3328V25.8034H79.1353V29.3758C79.1353 30.6192 79.475 31.1065 80.3458 31.1065C80.6504 31.1165 80.9552 31.0893 81.2532 31.0254L81.2742 33.3336C80.6322 33.5231 79.9641 33.611 79.2946 33.5941H79.2964ZM69.8204 33.5941H69.8003C68.4608 33.629 67.1592 33.1491 66.1661 32.2542C65.6765 31.7689 65.2931 31.188 65.0402 30.5481C64.7873 29.9082 64.6702 29.2231 64.6965 28.536C64.6515 27.8364 64.758 27.1354 65.0086 26.4803C65.2592 25.8251 65.6483 25.2311 66.1494 24.7383C66.6505 24.2455 67.2521 23.8653 67.9135 23.6236C68.5749 23.3818 69.2808 23.284 69.9834 23.3367C70.654 23.3143 71.3222 23.4272 71.9477 23.6686C72.5732 23.91 73.1431 24.2749 73.6231 24.7413C74.084 25.2257 74.4438 25.7963 74.6814 26.42C74.9191 27.0437 75.0299 27.7081 75.0076 28.3748C75.051 29.0663 74.9471 29.7591 74.7027 30.4079C74.4583 31.0567 74.0788 31.6468 73.5892 32.1396C73.0996 32.6323 72.5108 33.0166 71.8615 33.2673C71.2122 33.5179 70.5169 33.6293 69.8214 33.5941H69.8204ZM69.8607 25.5246C69.5406 25.5205 69.2256 25.6048 68.9507 25.7682C68.6759 25.9316 68.4521 26.1676 68.3041 26.4501C67.9784 27.0753 67.8186 27.7729 67.8399 28.4768C67.8399 30.2575 68.6246 31.4071 69.8378 31.4071H69.8635C71.0538 31.4071 71.8211 30.2484 71.8211 28.4549C71.8211 27.1005 71.3065 25.5219 69.8635 25.5219L69.8607 25.5246ZM58.4811 33.5941H58.4619C57.1221 33.6289 55.8203 33.1491 54.8268 32.2542C54.3369 31.769 53.9534 31.1881 53.7003 30.5482C53.4472 29.9083 53.3301 29.2232 53.3562 28.536C53.3113 27.8364 53.4177 27.1354 53.6684 26.4803C53.919 25.8251 54.308 25.2311 54.8091 24.7383C55.3103 24.2455 55.9118 23.8653 56.5732 23.6236C57.2347 23.3818 57.9405 23.284 58.6432 23.3367C59.3139 23.3143 59.9822 23.4272 60.6079 23.6686C61.2336 23.91 61.8036 24.2749 62.2838 24.7413C62.7449 25.2256 63.1048 25.7961 63.3427 26.4199C63.5805 27.0436 63.6914 27.7081 63.6691 28.3748C63.7126 29.0664 63.6087 29.7594 63.3642 30.4084C63.1196 31.0573 62.74 31.6475 62.2502 32.1403C61.7603 32.6331 61.1713 33.0173 60.5218 33.2679C59.8723 33.5184 59.1768 33.6296 58.4811 33.5941ZM58.5214 25.5246C58.2013 25.5205 57.8862 25.6048 57.6114 25.7682C57.3366 25.9316 57.1127 26.1676 56.9648 26.4501C56.639 27.0753 56.4792 27.7729 56.5006 28.4768C56.5006 30.2575 57.2844 31.4071 58.4985 31.4071H58.5186C59.709 31.4071 60.4772 30.2484 60.4772 28.4549C60.4772 27.1005 59.9672 25.5219 58.5214 25.5219V25.5246ZM118.954 33.574C115.658 33.574 113.688 31.6976 113.688 28.5551C113.677 27.2687 114.104 26.0165 114.9 25.0027C115.358 24.4534 115.936 24.0158 116.59 23.7235C117.244 23.4312 117.956 23.292 118.673 23.3167C121.915 23.3167 123.068 25.8471 123.068 28.2154C123.066 28.6254 123.032 29.0347 122.967 29.4396L116.611 29.4195C116.682 30.3304 117.45 31.3069 119.395 31.3069C120.321 31.3225 121.242 31.1799 122.119 30.8851L122.523 32.9537C121.386 33.3877 120.174 33.5975 118.957 33.5713L118.954 33.574ZM118.51 25.3434C117.997 25.3728 117.515 25.594 117.159 25.9627C116.804 26.3314 116.602 26.8202 116.594 27.3309H120.224C120.235 26.8569 120.102 26.3907 119.841 25.9937C119.692 25.7836 119.492 25.6138 119.26 25.4998C119.028 25.3858 118.771 25.3311 118.513 25.3406L118.51 25.3434ZM44.1101 33.3727H41.0427V19.8399H44.1101V25.0592H49.1699V19.8399H52.2373V33.3709H49.1699V27.7299H44.1101V33.3727ZM105.474 33.3727H102.405V23.5553H105.473V33.3709L105.474 33.3727ZM126.024 25.8125H125.692L125.869 23.5435H126.321L126.768 24.775C126.813 24.9052 126.849 25.0483 126.89 25.1967L126.929 25.3443H126.941C127.003 25.0892 127.053 24.9116 127.101 24.7686L127.549 23.538H127.996L128.168 25.8061H127.818L127.727 24.4398C127.72 24.3414 127.721 24.2303 127.727 24.1137V23.825H127.71C127.67 23.9725 127.594 24.2476 127.516 24.4753L127.041 25.7806H126.776L126.312 24.4407C126.252 24.2512 126.195 24.0226 126.146 23.825H126.129V24.0745C126.129 24.2002 126.129 24.3177 126.121 24.4389L126.035 25.8052L126.024 25.8125ZM124.913 25.8125H124.57V23.8286H123.876V23.538H125.616V23.8286H124.917V25.8061L124.913 25.8125ZM29.6438 24.3405H29.6365C29.3389 24.3398 29.0444 24.2807 28.7697 24.1667C28.4951 24.0527 28.2458 23.8859 28.036 23.6759C27.8262 23.4659 27.66 23.2169 27.5471 22.943C27.4341 22.6691 27.3765 22.3758 27.3776 22.0797C27.3774 21.8539 27.412 21.6293 27.4802 21.4139C27.5545 21.5808 27.6685 21.7272 27.8124 21.8405C27.9563 21.9538 28.1257 22.0306 28.3061 22.0643C28.4865 22.0979 28.6724 22.0875 28.8477 22.0338C29.0231 21.9801 29.1828 21.8847 29.3129 21.756C29.443 21.6273 29.5397 21.469 29.5947 21.2948C29.6496 21.1206 29.6612 20.9358 29.6283 20.7562C29.5954 20.5766 29.5192 20.4076 29.4061 20.2639C29.293 20.1201 29.1464 20.0058 28.9791 19.931C29.1939 19.8654 29.4173 19.8322 29.642 19.8326H29.6502C29.9516 19.8269 30.2511 19.8812 30.5311 19.9921C30.8112 20.103 31.0662 20.2683 31.2812 20.4785C31.4962 20.6886 31.6669 20.9394 31.7834 21.216C31.8998 21.4926 31.9595 21.7895 31.9592 22.0893C31.9588 22.3892 31.8983 22.686 31.7812 22.9623C31.6641 23.2386 31.4928 23.4889 31.2773 23.6985C31.0618 23.9082 30.8064 24.0729 30.526 24.1832C30.2457 24.2934 29.9461 24.3469 29.6447 24.3405H29.6438ZM22.8452 24.3214H22.8378C22.2368 24.3207 21.6607 24.0824 21.2362 23.6591C20.8117 23.2358 20.5736 22.6621 20.5744 22.0642C20.5751 21.4663 20.8146 20.8932 21.2401 20.4709C21.6656 20.0486 22.2423 19.8118 22.8433 19.8126H22.8507C23.0777 19.8129 23.3034 19.8476 23.52 19.9155C23.3524 19.9896 23.2054 20.1031 23.0917 20.2463C22.9779 20.3895 22.9009 20.558 22.8672 20.7374C22.8335 20.9168 22.8441 21.1016 22.8982 21.276C22.9522 21.4504 23.0481 21.6091 23.1774 21.7384C23.3068 21.8678 23.4659 21.9639 23.6409 22.0185C23.8159 22.0731 24.0017 22.0846 24.1822 22.0519C24.3626 22.0193 24.5324 21.9435 24.6769 21.8311C24.8214 21.7186 24.9363 21.573 25.0116 21.4066C25.115 21.7436 25.1376 22.1001 25.0776 22.4474C25.0176 22.7947 24.8766 23.1232 24.666 23.4065C24.4554 23.6899 24.181 23.9202 23.8648 24.0791C23.5486 24.2379 23.1994 24.3209 22.8452 24.3214ZM103.939 22.2701H103.919C103.698 22.2815 103.478 22.2476 103.271 22.1707C103.064 22.0937 102.875 21.9753 102.716 21.8228C102.558 21.6702 102.432 21.4868 102.347 21.2839C102.262 21.081 102.221 20.8629 102.224 20.6433C102.247 20.2035 102.439 19.7893 102.76 19.4861C103.08 19.1828 103.506 19.0138 103.949 19.0138C104.391 19.0138 104.817 19.1828 105.138 19.4861C105.459 19.7893 105.651 20.2035 105.673 20.6433C105.677 20.8663 105.634 21.0877 105.547 21.2932C105.459 21.4988 105.33 21.684 105.167 21.837C105.004 21.9901 104.81 22.1076 104.599 22.1822C104.387 22.2568 104.163 22.2867 103.939 22.2701Z" fill="#545F7E"/>
</svg>
