<svg width="147" height="54" viewBox="0 0 147 54" fill="none" xmlns="http://www.w3.org/2000/svg">
<path d="M59.7901 18.291H63.2019L68.9827 28.7562L74.7637 18.291H78.0806V35.5442H75.3322V22.3456L70.2147 31.4896H67.5611L62.4437 22.3456V35.5442H59.6952L59.7901 18.291Z" fill="#545F7E"/>
<path d="M87.2772 35.8266C86.0452 35.8266 84.9079 35.5434 83.8654 34.9778C82.9177 34.4121 82.0649 33.5636 81.591 32.6209C81.0224 31.5839 80.7382 30.3581 80.7382 29.1325C80.7382 27.9069 81.0223 26.6821 81.4962 25.645C81.97 24.7023 82.8231 23.8538 83.7708 23.2882C84.7185 22.7225 85.8557 22.4393 87.0877 22.4393C89.3621 22.345 91.4471 23.6649 92.3 25.739C92.7738 26.8703 93.0582 28.1905 93.0582 29.4161V30.1701H83.5813C83.676 31.1128 84.1497 31.961 84.8131 32.6209C85.5712 33.2808 86.4243 33.5636 87.372 33.5636C88.1302 33.5636 88.7934 33.4699 89.5515 33.1871C90.2149 32.9043 90.7836 32.527 91.2574 32.0556L92.7738 33.8463C91.2575 35.1661 89.2673 35.9209 87.2772 35.8266ZM89.2674 25.645C88.6988 25.0794 87.8457 24.7019 86.9928 24.7962C86.1399 24.7962 85.2871 25.079 84.7185 25.739C84.0551 26.3989 83.676 27.247 83.5813 28.1898H90.4046C90.3098 27.1527 89.9308 26.305 89.2674 25.645Z" fill="#545F7E"/>
<path d="M96.3753 24.9852H93.8163V22.7222H96.3753V18.9512H99.0286V22.7222H102.914V24.9852H99.0286V30.7356C98.9339 31.4898 99.1234 32.1499 99.5025 32.8099C99.9763 33.2812 100.545 33.47 101.208 33.47C101.493 33.47 101.777 33.47 102.156 33.47C102.44 33.47 102.63 33.3752 103.009 33.3752V35.6381C102.63 35.7324 102.346 35.8269 101.967 35.8269C101.588 35.9211 101.208 35.9208 100.735 35.9208C97.7967 35.9208 96.3753 34.3181 96.3753 31.207V24.9852Z" fill="#545F7E"/>
<path d="M117.036 35.544H114.383V33.7524C113.909 34.4123 113.34 34.9781 112.582 35.3552C111.824 35.7323 110.971 35.9205 110.118 35.9205C109.076 35.9205 108.033 35.6382 107.085 35.0726C106.232 34.5069 105.474 33.6585 105 32.7157C104.526 31.6787 104.242 30.4529 104.242 29.2273C104.242 28.0017 104.526 26.8702 105 25.7389C105.474 24.7962 106.232 23.9477 107.085 23.3821C108.033 22.8164 109.075 22.5332 110.213 22.5332C111.066 22.5332 111.824 22.7218 112.582 23.0046C113.245 23.3817 113.909 23.8531 114.288 24.4187V22.8168H116.941L117.036 35.544ZM114.383 27.1531C114.098 26.4931 113.624 25.8334 113.056 25.4563C112.392 24.9849 111.634 24.7962 110.876 24.7962C109.833 24.7962 108.791 25.1735 108.128 25.9277C107.37 26.7762 107.085 27.9073 107.085 29.0386C106.99 30.1699 107.369 31.301 108.033 32.1495C108.696 32.9037 109.739 33.3753 110.686 33.281C111.445 33.281 112.298 33.0923 112.866 32.6209C113.53 32.2438 114.003 31.584 114.288 30.9241L114.383 27.1531Z" fill="#545F7E"/>
<path d="M29.5617 29.6988C29.5617 25.2678 31.7413 20.7426 34.3948 20.7426C35.8164 20.7426 37.0483 21.5913 38.8489 24.231C37.1431 26.8707 36.0059 28.5673 36.0059 28.5673C33.6366 32.1497 32.8785 32.9984 31.5517 32.9984C30.4145 32.9041 29.5617 31.7728 29.5617 29.6988ZM44.9143 28.002L43.3033 25.3615C42.8294 24.7016 42.4503 24.042 42.0712 23.3821C43.4928 21.1195 44.7248 20.0825 46.1463 20.0825C49.0842 20.0825 51.4533 24.4193 51.4533 29.6988C51.4533 31.6786 50.7899 32.9036 49.3684 32.9036C48.0416 32.9036 47.4731 32.0558 44.9143 28.002ZM40.7443 21.5905C38.5646 18.8565 36.764 17.7256 34.5843 17.7256C30.1302 17.7256 26.7187 23.476 26.7187 29.6039C26.7187 33.4692 28.614 35.8267 31.6466 35.8267C33.9211 35.8267 35.532 34.7893 38.3751 29.7927L40.3653 26.2104C40.6496 26.6818 40.9339 27.1528 41.313 27.7184L42.6397 29.9814C45.2932 34.3181 46.7149 35.8267 49.3684 35.8267C52.401 35.8267 54.1069 33.3753 54.1069 29.51C54.1069 23.0993 50.6004 17.7256 46.3358 17.7256C44.0614 17.7256 42.2606 19.4222 40.7443 21.5905Z" fill="#545F7E"/>
</svg>
