<svg width="148" height="55" viewBox="0 0 148 55" fill="none" xmlns="http://www.w3.org/2000/svg">
<path d="M78.9116 36.7819L78.6927 36.6671L79.0434 35.7817L79.2888 35.176C79.3193 35.0402 79.3803 34.913 79.4674 34.8041C79.5546 34.6952 79.6654 34.6074 79.7916 34.5474C79.9178 34.4874 80.0561 34.4567 80.196 34.4577C80.3359 34.4586 80.4737 34.4912 80.5991 34.5529C81.2672 34.7984 81.9728 34.9278 82.6849 34.9355C84.3853 34.9355 85.3229 34.1385 85.3229 32.6966V32.3951L85.0867 32.5773C84.3934 33.0667 83.5551 33.3107 82.706 33.2704C79.8135 33.2704 77.7936 31.0224 77.7936 27.8052C77.7936 24.588 79.7476 22.4165 82.6465 22.4165C83.6832 22.3718 84.7001 22.7083 85.5033 23.362L85.6434 23.484L85.7349 23.3164C85.8626 23.0995 86.049 22.9227 86.273 22.8064C86.497 22.6901 86.7494 22.6389 87.0013 22.6588H88.4434L88.4306 32.5818C88.4306 36.3647 85.3504 37.7082 82.7124 37.7082C81.3901 37.6988 80.0884 37.3816 78.9116 36.7819ZM80.9535 27.7187C80.9535 29.095 81.5578 30.5679 83.2499 30.5679C84.2232 30.5679 85.3843 30.0888 85.3843 27.8207C85.3843 25.4114 84.074 25.1327 83.0878 25.1327C81.1064 25.1327 80.9535 27.112 80.9535 27.7187ZM38.0619 28.0621C38.0396 27.3165 38.1715 26.5743 38.4494 25.8816C38.7274 25.1888 39.1456 24.5603 39.6779 24.035C40.2102 23.5098 40.8454 23.0989 41.544 22.828C42.2426 22.5571 42.9897 22.4319 43.7389 22.4602C44.4893 22.431 45.2378 22.5554 45.9378 22.8257C46.6379 23.096 47.2747 23.5065 47.8088 24.0317C48.3428 24.5569 48.7627 25.1857 49.0425 25.879C49.3223 26.5722 49.4559 27.3153 49.4352 28.0621C49.4564 28.8092 49.3232 29.5527 49.0436 30.2464C48.7641 30.9402 48.3443 31.5694 47.8102 32.0951C47.2761 32.6208 46.6391 33.0317 45.9388 33.3023C45.2385 33.573 44.4897 33.6976 43.7389 33.6685C42.9893 33.6967 42.2419 33.5713 41.543 33.3C40.8442 33.0288 40.2088 32.6175 39.6765 32.0918C39.1441 31.566 38.7261 30.937 38.4483 30.2438C38.1706 29.5506 38.0391 28.808 38.0619 28.0621ZM41.1074 28.0621C41.1074 29.8191 42.1906 31.047 43.7408 31.047C45.323 31.047 46.3961 29.8456 46.3961 28.0621C46.4345 27.6898 46.3947 27.3137 46.2793 26.9576C46.1639 26.6014 45.9755 26.273 45.7259 25.9931C45.4762 25.7132 45.1709 25.4879 44.8292 25.3315C44.4875 25.175 44.1169 25.0909 43.7408 25.0844C42.1897 25.0844 41.1074 26.3086 41.1074 28.0621ZM25.8885 28.0621C25.866 27.3165 25.9978 26.5742 26.2757 25.8814C26.5536 25.1886 26.9717 24.5601 27.5041 24.0347C28.0365 23.5094 28.6717 23.0986 29.3703 22.8277C30.069 22.5569 30.8162 22.4318 31.5655 22.4602C32.3159 22.4306 33.0646 22.5547 33.7648 22.8249C34.4651 23.0951 35.102 23.5055 35.6362 24.0308C36.1703 24.5561 36.5902 25.185 36.8699 25.8785C37.1495 26.5719 37.2828 27.3152 37.2617 28.0621C37.2833 28.8093 37.1504 29.553 36.871 30.2469C36.5916 30.9408 36.1718 31.5702 35.6376 32.096C35.1034 32.6217 34.4663 33.0326 33.7658 33.3032C33.0653 33.5737 32.3163 33.698 31.5655 33.6685C30.8158 33.6968 30.0683 33.5715 29.3694 33.3003C28.6705 33.0291 28.0351 32.6179 27.5027 32.0921C26.9703 31.5663 26.5523 30.9372 26.2746 30.244C25.9969 29.5507 25.8654 28.808 25.8885 28.0621ZM28.9293 28.0621C28.9293 29.8191 30.0079 31.047 31.5627 31.047C33.1495 31.047 34.2181 29.8456 34.2181 28.0621C34.2567 27.6898 34.2171 27.3136 34.1018 26.9573C33.9866 26.601 33.7981 26.2725 33.5484 25.9925C33.2988 25.7125 32.9933 25.4872 32.6515 25.3309C32.3096 25.1746 31.9389 25.0906 31.5627 25.0844C30.0061 25.0844 28.9293 26.3086 28.9293 28.0621ZM63.1268 33.4936H61.5619V31.047L61.5537 22.6834H63.0187C63.2419 22.6509 63.4697 22.6711 63.6836 22.7424C63.8975 22.8136 64.0916 22.9338 64.2502 23.0934C64.4088 23.2529 64.5275 23.4474 64.5967 23.6609C64.6659 23.8745 64.6837 24.1013 64.6486 24.3229V33.4954H63.9161L63.1835 33.5027C63.1625 33.5027 63.1497 33.4936 63.1268 33.4936ZM58.2583 33.5009C57.8771 33.5605 57.4867 33.4916 57.1493 33.3053C56.8119 33.119 56.5467 32.8259 56.3959 32.4725L54.6736 29.238C54.56 29.0467 54.3183 29.0075 53.9639 29.0075H53.67V33.5009H50.5504V18.5197H52.0154C52.8743 18.5197 53.6718 18.6946 53.6718 19.9653V26.3086H54.169C54.3068 26.3262 54.4467 26.3106 54.5771 26.263C54.7074 26.2154 54.8244 26.1374 54.918 26.0354L57.0991 22.6788H60.6225L57.7153 26.9754C57.5791 27.1757 57.4259 27.364 57.2575 27.5383L57.1522 27.6376L57.2529 27.7414C57.4237 27.9228 57.5682 28.127 57.6824 28.3481L58.8654 30.5706L60.6445 33.5045L58.2583 33.5009ZM75.2435 33.4936C75.0188 33.5301 74.7885 33.5128 74.5718 33.4434C74.3551 33.3739 74.1581 33.2541 73.9971 33.0939C73.8361 32.9337 73.7157 32.7378 73.6459 32.5222C73.576 32.3066 73.5587 32.0776 73.5953 31.854V27.1421C73.5953 25.8259 73.2181 25.3203 72.2503 25.3203C71.6782 25.3088 71.1189 25.4893 70.6626 25.8327C70.2063 26.1761 69.8795 26.6624 69.735 27.2131C69.5991 27.6322 69.5338 28.0708 69.5418 28.5111V33.4945H66.4442L66.4387 22.6779H67.8405C68.1775 22.63 68.5206 22.7027 68.8087 22.8831C69.0968 23.0634 69.3111 23.3396 69.4136 23.6625L69.4795 23.9203L69.6672 23.7318C70.0765 23.3085 70.5701 22.9748 71.1164 22.7521C71.6627 22.5294 72.2497 22.4225 72.8399 22.4383C75.3772 22.4383 76.7177 23.8812 76.7177 26.6129V33.4936H75.2435ZM16.0984 33.4426H14.6132V20.0792C14.6168 19.6744 14.7773 19.2865 15.0614 18.9967C15.3454 18.7068 15.7311 18.5372 16.1378 18.5234H19.7491C22.5876 18.5234 24.4243 20.0446 24.4243 22.4001C24.439 22.9325 24.3355 23.4615 24.1212 23.9496C23.9069 24.4376 23.5871 24.8727 23.1846 25.2238L22.7853 25.5626L23.2432 25.8158C23.8043 26.153 24.2642 26.6337 24.5749 27.2079C24.8856 27.7822 25.0357 28.4288 25.0094 29.0804C25.0094 31.7311 22.9721 33.4399 19.8122 33.4399H16.1048C16.104 33.4408 16.1031 33.4416 16.1019 33.442C16.1008 33.4425 16.0996 33.4427 16.0984 33.4426ZM17.4966 27.9145V30.9204H20.021C20.294 30.9423 20.5686 30.9046 20.8255 30.81C21.0823 30.7154 21.3153 30.566 21.5082 30.3725C21.701 30.1789 21.849 29.9458 21.9418 29.6895C22.0346 29.4331 22.07 29.1596 22.0455 28.8882C22.067 28.6178 22.0294 28.346 21.9354 28.0914C21.8414 27.8368 21.6932 27.6054 21.5009 27.4131C21.3086 27.2208 21.0768 27.0721 20.8214 26.9772C20.566 26.8823 20.2929 26.8435 20.021 26.8634H18.2987C17.7493 26.9399 17.4966 27.2714 17.4966 27.9127V27.9145ZM17.4966 22.0348V24.5561H19.771C20.009 24.564 20.2459 24.5214 20.466 24.4311C20.6861 24.3409 20.8844 24.2052 21.0477 24.0329C21.211 23.8606 21.3357 23.6557 21.4133 23.4318C21.4909 23.2079 21.5198 22.9702 21.4979 22.7344C21.5204 22.4973 21.49 22.2583 21.409 22.0343C21.3279 21.8103 21.1983 21.6068 21.0292 21.4383C20.8601 21.2699 20.6557 21.1406 20.4307 21.0596C20.2056 20.9787 19.9654 20.9481 19.7271 20.97H18.4388C17.7905 21.0128 17.4966 21.3435 17.4966 22.0339V22.0348ZM61.181 19.8487C61.1825 19.494 61.2896 19.1477 61.4889 18.8536C61.6882 18.5595 61.9706 18.3308 62.3005 18.1963C62.6305 18.0619 62.9931 18.0278 63.3425 18.0983C63.6919 18.1689 64.0125 18.3409 64.2636 18.5926C64.5148 18.8444 64.6852 19.1646 64.7535 19.5127C64.8217 19.8608 64.7847 20.2213 64.647 20.5484C64.5094 20.8756 64.2773 21.1549 63.9801 21.3509C63.683 21.5468 63.3341 21.6508 62.9775 21.6495C62.7407 21.6487 62.5063 21.6014 62.2879 21.5105C62.0694 21.4195 61.8711 21.2866 61.7042 21.1194C61.5374 20.9521 61.4053 20.7539 61.3156 20.5358C61.2258 20.3178 61.1801 20.0843 61.181 19.8487Z" fill="#545F7E"/>
<path d="M129.729 22.4691C129.089 22.4716 128.457 22.617 127.882 22.8946C127.306 23.1722 126.8 23.575 126.401 24.0732L126.177 24.3564L126.001 24.0395C125.714 23.5255 125.285 23.1044 124.764 22.826C124.244 22.5476 123.654 22.4238 123.065 22.4691C122.526 22.4761 121.995 22.5929 121.504 22.8122C121.013 23.0316 120.572 23.3488 120.209 23.7443L119.915 24.0604L119.801 23.6441C119.699 23.3374 119.491 23.0762 119.214 22.9064C118.938 22.7366 118.61 22.6688 118.289 22.7151H116.986L116.977 33.4907H119.937V28.7341C119.938 28.3092 119.99 27.8859 120.093 27.4735C120.376 26.3239 121.153 25.0879 122.458 25.2118C123.263 25.2883 123.657 25.9077 123.657 27.1027V33.4907H126.638V28.7341C126.627 28.2943 126.683 27.8554 126.805 27.4325C126.88 26.8562 127.149 26.3223 127.569 25.9185C127.988 25.5146 128.534 25.2647 129.115 25.2099C130.031 25.2099 130.363 25.7237 130.363 27.1027V31.9158C130.363 33.0088 130.851 33.4916 131.945 33.4916H133.339V26.6118C133.339 23.8637 132.123 22.4691 129.73 22.4691" fill="#545F7E"/>
<path d="M110.187 31.0405C108.631 31.0405 107.551 29.8126 107.551 28.0583C107.551 26.3039 108.634 25.077 110.187 25.077C110.564 25.084 110.934 25.1685 111.276 25.3253C111.618 25.4821 111.923 25.7077 112.172 25.9879C112.422 26.2681 112.61 26.5967 112.726 26.9531C112.841 27.3095 112.881 27.6858 112.843 28.0583C112.843 29.8399 111.77 31.0405 110.187 31.0405ZM110.187 22.4555C109.438 22.4268 108.691 22.5517 107.992 22.8225C107.293 23.0933 106.658 23.5041 106.126 24.0295C105.593 24.5548 105.175 25.1835 104.897 25.8764C104.619 26.5693 104.488 27.3117 104.51 28.0574C104.487 28.803 104.619 29.5454 104.897 30.2383C105.175 30.9313 105.593 31.5599 106.126 32.0852C106.658 32.6108 107.293 33.0217 107.992 33.2925C108.691 33.5632 109.439 33.6881 110.188 33.6592C110.939 33.6889 111.687 33.5649 112.388 33.2947C113.088 33.0246 113.725 32.6142 114.259 32.0889C114.793 31.5635 115.213 30.9346 115.493 30.2411C115.772 29.5476 115.906 28.8043 115.884 28.0574C115.906 27.3104 115.772 26.5672 115.493 25.8736C115.213 25.1801 114.793 24.5512 114.259 24.0258C113.725 23.5006 113.088 23.0901 112.388 22.82C111.687 22.5499 110.939 22.4258 110.188 22.4555" fill="#545F7E"/>
<path d="M102.791 29.7503C102.004 30.5447 100.951 31.0241 99.8315 31.0974C99.4251 31.1226 99.0179 31.0622 98.6365 30.9201C98.2552 30.7781 97.9083 30.5576 97.6184 30.2731C97.3291 29.989 97.1032 29.6476 96.9554 29.2709C96.8076 28.8943 96.7412 28.4909 96.7604 28.087C96.7316 27.6922 96.7859 27.2957 96.9198 26.9229C97.0536 26.5501 97.2641 26.2092 97.5378 25.9219C97.8115 25.6345 98.1424 25.407 98.5095 25.254C98.8765 25.1009 99.2715 25.0256 99.6694 25.0328C100.226 25.0328 100.86 25.2314 100.958 25.5648L100.972 25.6213C101.036 25.851 101.173 26.0536 101.364 26.1977C101.555 26.3418 101.788 26.4193 102.027 26.4183H103.649V25.0083C103.649 23.1483 101.268 22.4733 99.6694 22.4733C98.9032 22.4313 98.1363 22.5464 97.4166 22.8115C96.697 23.0766 96.0398 23.4861 95.4858 24.0145C94.9318 24.543 94.493 25.1792 94.1965 25.8835C93.9001 26.5879 93.7524 27.3453 93.7626 28.1089C93.7484 28.8678 93.8913 29.6216 94.1824 30.3233C94.4735 31.025 94.9066 31.6596 95.4547 32.1878C96.0031 32.7151 96.6546 33.1247 97.3688 33.3911C98.0829 33.6575 98.8445 33.775 99.6062 33.7362C100.459 33.7447 101.304 33.5765 102.087 33.2424C102.871 32.9082 103.576 32.4153 104.158 31.7952L104.243 31.6913L102.961 29.5717L102.792 29.7539" fill="#545F7E"/>
<path d="M89.6484 31.8203C89.6472 31.3441 89.8361 30.8869 90.1737 30.5492C90.5113 30.2115 90.9698 30.021 91.4485 30.0195C91.9281 30.0203 92.3877 30.2103 92.7265 30.548C93.0652 30.8857 93.2553 31.3433 93.2551 31.8203C93.2548 32.2971 93.0645 32.7542 92.7258 33.0915C92.3871 33.4288 91.9277 33.6186 91.4485 33.6193C90.9701 33.6179 90.5118 33.4276 90.1743 33.0903C89.8368 32.753 89.6477 32.2962 89.6484 31.8203Z" fill="#545F7E"/>
</svg>
