<svg width="30" height="30" viewBox="0 0 30 30" fill="none" xmlns="http://www.w3.org/2000/svg">
<g clip-path="url(#clip0_1_38418)">
<mask id="mask0_1_38418" style="mask-type:luminance" maskUnits="userSpaceOnUse" x="2" y="3" width="25" height="24">
<path d="M26.9966 15C26.9966 8.37258 21.624 3 14.9966 3C8.36916 3 2.99658 8.37258 2.99658 15C2.99658 21.6274 8.36916 27 14.9966 27C21.624 27 26.9966 21.6274 26.9966 15Z" fill="white"/>
</mask>
<g mask="url(#mask0_1_38418)">
<path d="M2.99658 3H26.9966V27H2.99658V3Z" fill="#012169"/>
<path d="M26.9966 3V6L18.0902 15L26.9966 23.7656V27H23.8558L14.903 18.1872L6.18378 27H2.99658V23.8128L11.7166 15.0472L2.99658 6.4688V3H5.90298L14.903 11.8128L23.6214 3H26.9966Z" fill="white"/>
<path d="M11.6214 18.1872L12.1374 19.7808L4.96538 27H2.99658V26.8592L11.6214 18.1872ZM17.4342 17.6272L19.9654 18.0024L26.9966 24.8904V27L17.4342 17.6272ZM26.9966 3L17.9966 12.1872L17.8094 10.1248L24.8366 3H26.9966ZM2.99658 3.0472L12.0438 11.9064L9.27818 11.5312L2.99658 5.2968V3.0472Z" fill="#C8102E"/>
<path d="M11.247 3V27H18.747V3H11.247ZM2.99658 11.2504V18.7504H26.9966V11.2504H2.99658Z" fill="white"/>
<path d="M2.99658 12.7504V17.2504H26.9966V12.7504H2.99658ZM12.747 3V27H17.247V3H12.747Z" fill="#C8102E"/>
</g>
</g>
<circle cx="14.9966" cy="15" r="14" stroke="#C1C9E0"/>
<defs>
<clipPath id="clip0_1_38418">
<rect width="24" height="24" fill="white" transform="translate(2.99658 3)"/>
</clipPath>
</defs>
</svg>
