<svg width="24" height="32" viewBox="0 0 24 32" fill="none" xmlns="http://www.w3.org/2000/svg">
<path opacity="0.47" d="M22.1191 14.49L16.8007 10.84L2.22786 1.5C3.32226 2.79 4.18626 4.27 4.76226 5.89C5.14626 6.94 5.41506 8.03 5.55906 9.13L16.4839 16.26C16.6759 16.4 16.8103 16.62 16.8583 16.86C16.9063 17.1 16.8583 17.36 16.7143 17.56L16.6759 17.62L16.6375 17.67L16.5895 17.72H16.5607L16.4839 17.78L5.93346 24.48C5.78946 24.58 5.61666 24.62 5.45346 24.58C5.29026 24.55 5.13666 24.45 5.04066 24.3C4.97346 24.19 4.93506 24.06 4.92546 23.93V8.65C4.78146 7.71 4.54146 6.78 4.21506 5.89C3.45666 3.68 2.13186 1.72 0.384663 0.24L0.0390625 0V28.75C0.0390625 29.78 0.586262 30.73 1.45986 31.22C2.33346 31.71 3.39906 31.66 4.22466 31.1L22.1191 19.49C22.9255 18.94 23.4055 18 23.4055 17C23.4055 16 22.9159 15.06 22.1191 14.51V14.49Z" fill="#5590FF"/>
<path d="M22.1191 14.49L16.8007 10.84C17.6551 11.56 18.2023 12.61 18.3079 13.76C18.4135 14.9 18.0871 16.04 17.3863 16.93C17.1847 17.19 16.9447 17.43 16.6855 17.64L16.6471 17.69L16.5991 17.74L16.5223 17.8L8.92866 22.46L6.01026 24.52C5.86626 24.63 5.68386 24.68 5.51106 24.65C5.33826 24.62 5.18466 24.51 5.08866 24.35C5.02146 24.24 4.98306 24.11 4.97346 23.98V8.68C4.81986 7.73 4.56066 6.79 4.22466 5.89C3.45666 3.68 2.13186 1.72 0.384663 0.24L0.0390625 0V28.75C0.0390625 29.78 0.586262 30.73 1.45986 31.22C2.33346 31.71 3.39906 31.66 4.22466 31.1L22.1191 19.49C22.9255 18.94 23.4055 18 23.4055 17C23.4055 16 22.9159 15.06 22.1191 14.51V14.49Z" fill="url(#paint0_linear_1_7214)"/>
<defs>
<linearGradient id="paint0_linear_1_7214" x1="0.0390625" y1="15.78" x2="23.4055" y2="15.78" gradientUnits="userSpaceOnUse">
<stop stop-color="#5690FF"/>
<stop offset="0.1" stop-color="#4D8AFC"/>
<stop offset="0.2" stop-color="#4584F9"/>
<stop offset="0.3" stop-color="#3C7DF6"/>
<stop offset="0.4" stop-color="#3477F3"/>
<stop offset="0.5" stop-color="#2B71F0"/>
<stop offset="0.6" stop-color="#226BEC"/>
<stop offset="0.7" stop-color="#1A65E9"/>
<stop offset="0.8" stop-color="#115EE6"/>
<stop offset="0.9" stop-color="#0958E3"/>
<stop offset="1" stop-color="#0052E0"/>
</linearGradient>
</defs>
</svg>
