<svg width="158" height="36" viewBox="0 0 158 36" fill="none" xmlns="http://www.w3.org/2000/svg">
<path opacity="0.47" d="M26.3352 16.5L20.0152 12.342L2.69619 1.7C3.99747 3.1663 5.01476 4.86179 5.69619 6.7C6.15203 7.89095 6.46912 9.13046 6.64119 10.394L19.6282 18.516C19.7483 18.5988 19.85 18.7056 19.9269 18.8296C20.0038 18.9536 20.0543 19.0921 20.0751 19.2365C20.096 19.3809 20.0868 19.5281 20.048 19.6687C20.0093 19.8094 19.942 19.9406 19.8502 20.054L19.8012 20.109L19.7452 20.164H19.7162L19.6262 20.233L7.08319 27.858C6.96956 27.9348 6.83718 27.9793 6.70021 27.9868C6.56324 27.9942 6.42682 27.9643 6.30554 27.9002C6.18426 27.8361 6.08267 27.7403 6.01162 27.623C5.94058 27.5056 5.90276 27.3712 5.90219 27.234V9.847C5.72567 8.77308 5.44432 7.71904 5.06219 6.7C4.15524 4.1829 2.58028 1.96012 0.506191 0.27L0.0961914 0V32.723C0.0983574 33.302 0.256821 33.8698 0.554855 34.3662C0.852889 34.8627 1.27943 35.2695 1.78947 35.5436C2.2995 35.8178 2.87409 35.9492 3.45259 35.9239C4.03108 35.8986 4.59202 35.7176 5.07619 35.4L26.3352 22.176C26.8064 21.8675 27.1934 21.4465 27.4613 20.9511C27.7291 20.4556 27.8694 19.9012 27.8694 19.338C27.8694 18.7748 27.7291 18.2204 27.4613 17.7249C27.1934 17.2295 26.8064 16.8085 26.3352 16.5Z" fill="#252E48"/>
<path d="M26.3352 16.5L20.0152 12.342C20.5898 12.812 21.0501 13.4064 21.3614 14.0803C21.6727 14.7542 21.8267 15.49 21.812 16.2322C21.7973 16.9744 21.6141 17.7035 21.2763 18.3645C20.9386 19.0256 20.455 19.6012 19.8622 20.048L19.8132 20.103L19.7572 20.158H19.7222L19.6322 20.227L10.6032 25.535L7.13119 27.886C7.01756 27.9628 6.88518 28.0073 6.74821 28.0148C6.61124 28.0222 6.47482 27.9923 6.35354 27.9282C6.23226 27.8641 6.13067 27.7683 6.05962 27.651C5.98858 27.5336 5.95076 27.3992 5.95019 27.262V9.875C5.7599 8.78991 5.46244 7.72637 5.06219 6.7C4.15524 4.1829 2.58028 1.96012 0.506191 0.27L0.0961914 0V32.723C0.0983574 33.302 0.256821 33.8698 0.554855 34.3662C0.852889 34.8627 1.27943 35.2695 1.78947 35.5436C2.2995 35.8178 2.87409 35.9492 3.45259 35.9239C4.03108 35.8986 4.59202 35.7176 5.07619 35.4L26.3352 22.176C26.8064 21.8675 27.1934 21.4465 27.4613 20.9511C27.7291 20.4556 27.8694 19.9012 27.8694 19.338C27.8694 18.7748 27.7291 18.2204 27.4613 17.7249C27.1934 17.2295 26.8064 16.8085 26.3352 16.5Z" fill="#252E48"/>
<path d="M45.8162 24.948H42.7672C42.5672 24.948 42.4832 24.781 42.3962 24.605L42.3702 24.553L39.6832 19.522H39.4612C39.2442 19.522 38.9742 19.511 38.7132 19.5C38.4702 19.49 38.2422 19.48 38.0722 19.48V24.553C38.0709 24.6582 38.0282 24.7587 37.9533 24.8326C37.8784 24.9066 37.7774 24.948 37.6722 24.948H35.0832C34.978 24.948 34.877 24.9066 34.8021 24.8326C34.7272 24.7587 34.6845 24.6582 34.6832 24.553V11.219C34.6832 10.53 34.9592 10.368 35.5832 10.264C36.9222 10.0902 38.271 10.002 39.6212 10C43.5982 10 45.6152 11.564 45.6152 14.65V14.906C45.6677 15.7566 45.4465 16.6016 44.984 17.3174C44.5216 18.0332 43.8422 18.5822 43.0452 18.884L46.0522 24.491C46.0891 24.5591 46.1102 24.6346 46.1142 24.712C46.1142 24.866 46.0112 24.948 45.8162 24.948ZM39.6142 12.89C39.3332 12.89 38.3012 12.931 38.0582 12.952V16.77C38.1722 16.77 38.4862 16.781 38.7902 16.792C39.0942 16.803 39.3532 16.812 39.4472 16.812C40.1975 16.8804 40.9515 16.7289 41.6172 16.376C41.8339 16.2066 42.0034 15.9844 42.1097 15.7307C42.216 15.477 42.2554 15.2003 42.2242 14.927V14.657C42.2252 13.484 41.3472 12.89 39.6142 12.89Z" fill="#252E48"/>
<path d="M53.0462 24.7211H52.7602C51.5308 24.7555 50.3281 24.359 49.3602 23.6001C48.8103 23.0987 48.3807 22.4795 48.1037 21.7887C47.8266 21.098 47.7092 20.3536 47.7602 19.6111V18.2251C47.6937 16.8292 48.172 15.4621 49.0942 14.4121C49.5821 13.9346 50.1632 13.5628 50.8011 13.3199C51.4391 13.0769 52.1203 12.9681 52.8022 13.0001C53.4811 12.9711 54.1583 13.089 54.7875 13.3456C55.4167 13.6022 55.9832 13.9916 56.4482 14.4871C57.3208 15.5324 57.7737 16.8646 57.7192 18.2251V19.3751C57.6842 19.6751 57.5192 19.8461 57.2682 19.8461H50.9132V19.8881C50.8704 20.1754 50.894 20.4687 50.9823 20.7455C51.0706 21.0222 51.2211 21.2751 51.4224 21.4846C51.6236 21.694 51.8703 21.8546 52.1433 21.9538C52.4163 22.0531 52.7084 22.0884 52.9972 22.0571C54.2272 22.0571 55.9972 21.9621 56.8232 21.8771H56.8862C57.1282 21.8771 57.2612 21.9901 57.2612 22.1961V23.7071C57.2612 24.0071 57.2012 24.1611 56.8442 24.2411C55.6034 24.56 54.3273 24.7212 53.0462 24.7211ZM52.7462 15.5641C51.5982 15.5641 50.9132 16.3881 50.9132 17.7641V17.8401H54.5382V17.7671C54.5778 17.1762 54.4063 16.5904 54.0542 16.1141C53.8919 15.9295 53.6899 15.7842 53.4634 15.6889C53.2368 15.5936 52.9916 15.551 52.7462 15.5641Z" fill="#252E48"/>
<path d="M69.0962 24.566H66.6512C66.5437 24.5619 66.4419 24.5162 66.3673 24.4386C66.2928 24.3611 66.2511 24.2576 66.2512 24.15V17.158C66.2512 16.285 66.1122 15.668 65.0772 15.668H64.0772C63.0422 15.668 62.9032 16.285 62.9032 17.158V24.171C62.9033 24.2786 62.8617 24.3821 62.7871 24.4596C62.7125 24.5372 62.6107 24.5829 62.5032 24.587H60.0532C59.9487 24.5805 59.8509 24.5334 59.7808 24.4556C59.7106 24.3778 59.6738 24.2756 59.6782 24.171V17.158C59.6782 14.386 61.2132 13 64.0782 13H65.0782C67.9432 13 69.4782 14.386 69.4782 17.158V24.171C69.477 24.2732 69.4368 24.371 69.3658 24.4445C69.2947 24.5179 69.1983 24.5614 69.0962 24.566Z" fill="#252E48"/>
<path d="M76.4362 24.454C75.759 24.4965 75.0803 24.3997 74.442 24.1696C73.8038 23.9394 73.2194 23.5809 72.7252 23.116C72.2745 22.6065 71.9287 22.0131 71.7075 21.3698C71.4864 20.7265 71.3942 20.046 71.4362 19.367V17.808C71.4362 14.528 73.2122 12.722 76.4362 12.722C76.9825 12.736 77.5274 12.7824 78.0682 12.861V9.39501C78.0695 9.29031 78.1118 9.19029 78.186 9.11644C78.2603 9.04259 78.3605 9.00078 78.4652 9.00001H80.8532C80.9602 8.99937 81.0634 9.0401 81.1411 9.11371C81.2188 9.18732 81.265 9.2881 81.2702 9.39501V23.324C81.2502 23.674 81.1582 23.811 80.6592 23.934C79.276 24.268 77.8591 24.4425 76.4362 24.454ZM76.4092 15.389C75.1872 15.389 74.6172 16.16 74.6172 17.815V19.367C74.6172 21.036 75.1862 21.813 76.4092 21.813H76.4362C76.9716 21.8142 77.5063 21.7765 78.0362 21.7V15.486C77.496 15.4248 76.9529 15.3924 76.4092 15.389Z" fill="#252E48"/>
<path d="M88.6262 24.7211H88.3402C87.1108 24.7555 85.908 24.359 84.9402 23.6001C84.3902 23.0987 83.9607 22.4795 83.6836 21.7887C83.4066 21.098 83.2892 20.3536 83.3402 19.6111V18.2251C83.2736 16.8292 83.7519 15.4621 84.6742 14.4121C85.1621 13.9346 85.7431 13.5628 86.3811 13.3199C87.0191 13.0769 87.7003 12.9681 88.3822 13.0001C89.0611 12.9711 89.7383 13.089 90.3675 13.3456C90.9967 13.6022 91.5632 13.9916 92.0282 14.4871C92.9007 15.5324 93.3537 16.8646 93.2992 18.2251V19.3751C93.2992 19.6751 93.1512 19.8461 92.8822 19.8461H86.5282V19.8881C86.4854 20.1753 86.509 20.4685 86.5972 20.7452C86.6854 21.0219 86.8359 21.2747 87.037 21.4841C87.2382 21.6936 87.4847 21.8541 87.7575 21.9535C88.0304 22.0528 88.3224 22.0882 88.6112 22.0571C89.8422 22.0571 91.6112 21.9621 92.4382 21.8771H92.4662C92.7082 21.8771 92.8412 21.9901 92.8412 22.1961V23.7071C92.8412 24.0071 92.7812 24.1611 92.4242 24.2411C91.1834 24.56 89.9073 24.7212 88.6262 24.7211ZM88.3612 15.5641C87.2132 15.5641 86.5282 16.3881 86.5282 17.7641V17.8401H90.1532V17.7671C90.1532 16.3671 89.5002 15.5641 88.3612 15.5641Z" fill="#252E48"/>
<path d="M100.411 15.6911C99.8117 15.6854 99.2127 15.7248 98.6192 15.8091V24.1591C98.6193 24.2668 98.5776 24.3702 98.5031 24.4478C98.4285 24.5254 98.3267 24.571 98.2192 24.5751H95.8142C95.7055 24.5703 95.6025 24.5251 95.5254 24.4483C95.4483 24.3716 95.4026 24.2688 95.3972 24.1601V14.2221C95.3972 13.9451 95.5572 13.7441 96.0152 13.5851C97.4402 13.1477 98.9286 12.9533 100.418 13.0101C100.654 13.0101 100.953 13.1101 100.953 13.3841V15.3101C100.946 15.5321 100.797 15.6911 100.411 15.6911Z" fill="#252E48"/>
<path d="M108.495 15.556H105.786V24.142C105.781 24.2508 105.735 24.3539 105.658 24.4308C105.581 24.5078 105.478 24.5531 105.369 24.558H102.96C102.851 24.5531 102.748 24.5078 102.671 24.4308C102.594 24.3539 102.548 24.2508 102.543 24.142V12.361C102.543 9.589 104.418 9 106.425 9C107.153 9.01537 107.879 9.07548 108.599 9.18C108.821 9.222 108.899 9.298 108.899 9.416V11.086C108.899 11.308 108.823 11.405 108.621 11.405H106.536C105.918 11.405 105.779 11.779 105.779 12.361V13.161H108.488C108.594 13.161 108.696 13.2031 108.771 13.2782C108.846 13.3532 108.888 13.4549 108.888 13.561V15.141C108.891 15.1945 108.884 15.2481 108.866 15.2986C108.848 15.3491 108.82 15.3954 108.783 15.4349C108.747 15.4744 108.703 15.5061 108.654 15.5283C108.606 15.5505 108.553 15.5626 108.499 15.564L108.495 15.556Z" fill="#252E48"/>
<path d="M115.266 24.726C114.584 24.7618 113.903 24.6559 113.264 24.4149C112.625 24.1739 112.043 23.8032 111.555 23.326C110.658 22.2809 110.196 20.9308 110.266 19.555V18.17C110.196 16.7946 110.658 15.4449 111.555 14.4C112.043 13.9229 112.625 13.5521 113.264 13.3112C113.903 13.0702 114.584 12.9643 115.266 13C115.946 12.964 116.626 13.0699 117.263 13.3109C117.9 13.5519 118.48 13.9228 118.966 14.4C119.858 15.4472 120.316 16.796 120.246 18.17V19.555C120.317 20.93 119.859 22.2799 118.966 23.328C118.48 23.8048 117.9 24.1752 117.263 24.4159C116.626 24.6566 115.946 24.7622 115.266 24.726ZM115.266 15.745C114.094 15.745 113.474 16.584 113.474 18.17V19.555C113.474 21.156 114.094 22 115.266 22C116.438 22 117.038 21.154 117.038 19.553V18.17C117.038 16.583 116.425 15.745 115.266 15.745Z" fill="#252E48"/>
<path d="M127.337 15.6911C126.738 15.6854 126.139 15.7248 125.545 15.8091V24.1591C125.545 24.2668 125.504 24.3702 125.429 24.4478C125.354 24.5254 125.253 24.571 125.145 24.5751H122.74C122.631 24.5703 122.529 24.5251 122.451 24.4483C122.374 24.3716 122.329 24.2688 122.323 24.1601V14.2221C122.323 13.9451 122.483 13.7441 122.941 13.5851C124.366 13.1477 125.855 12.9533 127.344 13.0101C127.58 13.0101 127.879 13.1101 127.879 13.3841V15.3101C127.886 15.5321 127.723 15.6911 127.337 15.6911Z" fill="#252E48"/>
<path d="M134.554 24.7211H134.268C133.039 24.7555 131.836 24.359 130.868 23.6001C130.318 23.0987 129.889 22.4795 129.612 21.7887C129.335 21.098 129.217 20.3536 129.268 19.6111V18.2251C129.202 16.8292 129.68 15.4621 130.602 14.4121C131.09 13.9346 131.671 13.5628 132.309 13.3199C132.947 13.0769 133.628 12.9681 134.31 13.0001C134.989 12.9711 135.666 13.089 136.296 13.3456C136.925 13.6022 137.491 13.9916 137.956 14.4871C138.829 15.5324 139.282 16.8646 139.227 18.2251V19.3751C139.225 19.4958 139.177 19.6112 139.093 19.6984C139.01 19.7857 138.897 19.8384 138.776 19.8461H132.421V19.8881C132.378 20.1754 132.402 20.4687 132.49 20.7455C132.579 21.0222 132.729 21.2751 132.93 21.4846C133.132 21.694 133.378 21.8546 133.651 21.9538C133.924 22.0531 134.216 22.0884 134.505 22.0571C135.735 22.0571 137.505 21.9621 138.331 21.8771H138.394C138.636 21.8771 138.769 21.9901 138.769 22.1961V23.7071C138.769 24.0071 138.709 24.1611 138.352 24.2411C137.111 24.56 135.835 24.7212 134.554 24.7211ZM134.254 15.5641C133.106 15.5641 132.421 16.3881 132.421 17.7641V17.8401H136.046V17.7671C136.086 17.1762 135.914 16.5904 135.562 16.1141C135.4 15.9295 135.198 15.7842 134.971 15.6889C134.745 15.5936 134.5 15.551 134.254 15.5641Z" fill="#252E48"/>
<path d="M145.006 24.7193C143.785 24.716 142.568 24.5693 141.381 24.2823C141.274 24.264 141.177 24.2077 141.108 24.1238C141.039 24.0398 141.003 23.9338 141.006 23.8253V22.2173C141.005 22.1678 141.015 22.1187 141.033 22.0729C141.052 22.0271 141.079 21.9855 141.114 21.9506C141.149 21.9157 141.191 21.8882 141.237 21.8698C141.283 21.8513 141.332 21.8423 141.381 21.8433H141.457C142.533 21.9823 144.235 22.1203 144.846 22.1203C145.804 22.1203 146.02 21.8643 146.02 21.3443C146.02 21.0443 145.839 20.8243 145.284 20.5123L142.693 19.0233C142.156 18.7444 141.706 18.3224 141.394 17.8039C141.081 17.2854 140.918 16.6906 140.922 16.0853C140.922 14.0753 142.256 13.0003 145.006 13.0003C146.205 12.9874 147.399 13.1416 148.555 13.4583C148.662 13.4765 148.759 13.5328 148.828 13.6167C148.897 13.7007 148.933 13.8067 148.93 13.9153V15.5233C148.93 15.7593 148.812 15.8973 148.611 15.8973H148.534C147.437 15.7549 146.334 15.6694 145.228 15.6413C144.45 15.6413 144.172 15.7593 144.172 16.2163C144.172 16.5163 144.394 16.6733 144.79 16.9093L147.263 18.3003C147.863 18.5542 148.375 18.9801 148.733 19.5243C149.092 20.0685 149.281 20.7066 149.277 21.3583C149.27 23.2503 147.916 24.7193 145.006 24.7193Z" fill="#252E48"/>
<path d="M157.215 14.906H154.485V20.806C154.485 21.499 154.804 21.624 155.659 21.624H157.152C157.409 21.624 157.569 21.742 157.569 21.964V23.489C157.569 23.711 157.43 23.849 157.169 23.889C156.379 24.0091 155.58 24.0692 154.78 24.069C152.555 24.068 151.235 23.375 151.235 20.79V10.811C151.242 10.7072 151.287 10.6095 151.36 10.536C151.434 10.4624 151.531 10.418 151.635 10.411L154.062 10H154.125C154.223 10.0118 154.314 10.0589 154.38 10.1325C154.446 10.206 154.484 10.3011 154.485 10.4V12.474H157.215C157.268 12.474 157.32 12.4843 157.368 12.5044C157.417 12.5245 157.461 12.554 157.498 12.5912C157.535 12.6283 157.565 12.6724 157.585 12.7209C157.605 12.7695 157.615 12.8215 157.615 12.874V14.484C157.618 14.5384 157.61 14.5929 157.592 14.6441C157.573 14.6954 157.544 14.7422 157.506 14.7818C157.469 14.8214 157.424 14.853 157.374 14.8745C157.324 14.896 157.27 14.9071 157.215 14.907V14.906Z" fill="#252E48"/>
</svg>
